# xmcd CD database file
#
# Track frame offsets:
#	150
#	18506
#	36655
#	61398
#	75423
#	100754
#	111352
#	127688
#	135065
#	152656
#
# Disc length: 2410 seconds
#
# Revision: 0
# Processed by: cddbd v1.5.2PL0 Copyright (c) Steve Scherf et al.
# Submitted via: CDex 1.51
#
DISCID=7209680a
DTITLE=our diso minds - oh my
DYEAR=1900
DGENRE=Jazz
TTITLE0=green
TTITLE1=kill me
TTITLE2=Low Mid High
TTITLE3=oh my oh my i sigh i sigh
TTITLE4=our disoriented minds
TTITLE5=sun
TTITLE6=when i think
TTITLE7=interlude
TTITLE8=young knight
TTITLE9=playin' contrary world
EXTD=
EXTT0=
EXTT1=
EXTT2=
EXTT3=
EXTT4=
EXTT5=
EXTT6=
EXTT7=
EXTT8=
EXTT9=
PLAYORDER=
